<mxfile host="65bd71144e">
    <diagram id="2KYOVUM-ZOfWYbHHU8iF" name="Page-1">
        <mxGraphModel dx="1112" dy="572" grid="1" gridSize="10" guides="1" tooltips="1" connect="1" arrows="1" fold="1" page="1" pageScale="1" pageWidth="827" pageHeight="1169" math="0" shadow="0">
            <root>
                <mxCell id="0"/>
                <mxCell id="1" parent="0"/>
                <mxCell id="2" value="Component" style="swimlane;whiteSpace=wrap;html=1;" vertex="1" parent="1">
                    <mxGeometry x="625" y="130" width="80" height="50" as="geometry"/>
                </mxCell>
                <mxCell id="3" value="&lt;b&gt;&lt;font style=&quot;font-size: 24px;&quot;&gt;Key&lt;/font&gt;&lt;/b&gt;" style="text;html=1;strokeColor=none;fillColor=none;align=center;verticalAlign=middle;whiteSpace=wrap;rounded=0;" vertex="1" parent="1">
                    <mxGeometry x="635" y="90" width="60" height="30" as="geometry"/>
                </mxCell>
                <mxCell id="4" value="&lt;font size=&quot;1&quot;&gt;Data&lt;/font&gt;" style="rounded=1;whiteSpace=wrap;html=1;fontSize=24;arcSize=27;" vertex="1" parent="1">
                    <mxGeometry x="635" y="200" width="70" height="20" as="geometry"/>
                </mxCell>
                <mxCell id="22" style="edgeStyle=none;rounded=1;html=1;exitX=0.5;exitY=1;exitDx=0;exitDy=0;strokeColor=#FF0000;strokeWidth=4;fontSize=14;fontColor=#FF0080;entryX=0.5;entryY=0;entryDx=0;entryDy=0;" edge="1" parent="1" source="6" target="7">
                    <mxGeometry relative="1" as="geometry">
                        <mxPoint x="330" y="200" as="targetPoint"/>
                    </mxGeometry>
                </mxCell>
                <mxCell id="51" style="edgeStyle=none;rounded=1;html=1;exitX=1;exitY=0.5;exitDx=0;exitDy=0;entryX=1;entryY=0;entryDx=0;entryDy=0;strokeColor=#0000FF;strokeWidth=4;fontSize=10;fontColor=#0000FF;" edge="1" parent="1" source="6" target="12">
                    <mxGeometry relative="1" as="geometry">
                        <Array as="points">
                            <mxPoint x="440" y="220"/>
                        </Array>
                    </mxGeometry>
                </mxCell>
                <mxCell id="53" style="edgeStyle=none;rounded=1;html=1;exitX=0;exitY=0.5;exitDx=0;exitDy=0;entryX=0;entryY=0.5;entryDx=0;entryDy=0;strokeColor=#0000FF;strokeWidth=4;fontSize=10;fontColor=#0000FF;" edge="1" parent="1" source="6" target="13">
                    <mxGeometry relative="1" as="geometry">
                        <Array as="points">
                            <mxPoint x="10" y="260"/>
                            <mxPoint x="10" y="490"/>
                        </Array>
                    </mxGeometry>
                </mxCell>
                <mxCell id="6" value="OrderList" style="swimlane;whiteSpace=wrap;html=1;" vertex="1" parent="1">
                    <mxGeometry x="110" y="40" width="170" height="110" as="geometry"/>
                </mxCell>
                <mxCell id="8" value="&lt;font size=&quot;1&quot;&gt;ORDER_LIST&lt;/font&gt;" style="rounded=1;whiteSpace=wrap;html=1;fontSize=24;arcSize=27;" vertex="1" parent="6">
                    <mxGeometry x="50" y="30" width="70" height="20" as="geometry"/>
                </mxCell>
                <mxCell id="9" value="&lt;font size=&quot;1&quot;&gt;PRODUCT_LIST&lt;/font&gt;" style="rounded=1;whiteSpace=wrap;html=1;fontSize=24;arcSize=27;" vertex="1" parent="6">
                    <mxGeometry x="40" y="60" width="90" height="20" as="geometry"/>
                </mxCell>
                <mxCell id="24" style="edgeStyle=none;rounded=1;html=1;exitX=0;exitY=1;exitDx=0;exitDy=0;entryX=0.5;entryY=0;entryDx=0;entryDy=0;strokeColor=#FF0000;strokeWidth=4;fontSize=14;fontColor=#FF0000;" edge="1" parent="1" source="7" target="10">
                    <mxGeometry relative="1" as="geometry"/>
                </mxCell>
                <mxCell id="26" style="edgeStyle=none;rounded=1;html=1;exitX=1;exitY=1;exitDx=0;exitDy=0;entryX=0.5;entryY=0;entryDx=0;entryDy=0;strokeColor=#FF0000;strokeWidth=4;fontSize=14;fontColor=#FF0000;" edge="1" parent="1" source="7" target="11">
                    <mxGeometry relative="1" as="geometry"/>
                </mxCell>
                <mxCell id="40" style="edgeStyle=none;rounded=1;html=1;exitX=1;exitY=0.5;exitDx=0;exitDy=0;entryX=0.75;entryY=0;entryDx=0;entryDy=0;strokeColor=#FF0000;strokeWidth=4;fontSize=14;fontColor=#FF0000;" edge="1" parent="1" source="7" target="11">
                    <mxGeometry relative="1" as="geometry">
                        <Array as="points">
                            <mxPoint x="320" y="260"/>
                        </Array>
                    </mxGeometry>
                </mxCell>
                <mxCell id="7" value="OrderItem" style="swimlane;whiteSpace=wrap;html=1;" vertex="1" parent="1">
                    <mxGeometry x="150" y="230" width="90" height="50" as="geometry"/>
                </mxCell>
                <mxCell id="10" value="AddressContainer" style="swimlane;whiteSpace=wrap;html=1;" vertex="1" parent="1">
                    <mxGeometry x="30" y="330" width="130" height="50" as="geometry"/>
                </mxCell>
                <mxCell id="28" style="edgeStyle=none;rounded=1;html=1;exitX=0;exitY=1;exitDx=0;exitDy=0;entryX=0.5;entryY=0;entryDx=0;entryDy=0;strokeColor=#FF0000;strokeWidth=4;fontSize=14;fontColor=#FF0000;startArrow=none;" edge="1" parent="1" source="11" target="13">
                    <mxGeometry relative="1" as="geometry">
                        <mxPoint x="222.5" y="410" as="sourcePoint"/>
                    </mxGeometry>
                </mxCell>
                <mxCell id="31" style="edgeStyle=none;rounded=1;html=1;exitX=1;exitY=1;exitDx=0;exitDy=0;entryX=0.5;entryY=0;entryDx=0;entryDy=0;strokeColor=#FF0000;strokeWidth=4;fontSize=14;fontColor=#FF0000;" edge="1" parent="1" source="11" target="12">
                    <mxGeometry relative="1" as="geometry"/>
                </mxCell>
                <mxCell id="11" value="ProductList" style="swimlane;whiteSpace=wrap;html=1;" vertex="1" parent="1">
                    <mxGeometry x="240" y="329.5" width="90" height="50.5" as="geometry"/>
                </mxCell>
                <mxCell id="55" style="edgeStyle=none;rounded=1;html=1;exitX=1;exitY=0.5;exitDx=0;exitDy=0;entryX=1;entryY=0.25;entryDx=0;entryDy=0;strokeColor=#FF0080;strokeWidth=4;fontSize=10;fontColor=#0000FF;" edge="1" parent="1" source="12" target="6">
                    <mxGeometry relative="1" as="geometry">
                        <Array as="points">
                            <mxPoint x="510" y="380"/>
                            <mxPoint x="510" y="160"/>
                        </Array>
                    </mxGeometry>
                </mxCell>
                <mxCell id="12" value="ProductContainer" style="swimlane;whiteSpace=wrap;html=1;" vertex="1" parent="1">
                    <mxGeometry x="340" y="480" width="120" height="50" as="geometry"/>
                </mxCell>
                <mxCell id="38" style="edgeStyle=none;rounded=1;html=1;exitX=1;exitY=0.5;exitDx=0;exitDy=0;entryX=0;entryY=0.5;entryDx=0;entryDy=0;strokeColor=#FF0000;strokeWidth=4;fontSize=14;fontColor=#FF0000;startArrow=none;" edge="1" parent="1" source="32" target="12">
                    <mxGeometry relative="1" as="geometry"/>
                </mxCell>
                <mxCell id="48" style="edgeStyle=none;rounded=1;html=1;exitX=0;exitY=0;exitDx=0;exitDy=0;entryX=0;entryY=0.5;entryDx=0;entryDy=0;strokeColor=#00FF00;strokeWidth=4;fontSize=10;fontColor=#FF0000;startArrow=none;" edge="1" parent="1" source="49" target="11">
                    <mxGeometry relative="1" as="geometry">
                        <Array as="points">
                            <mxPoint x="110" y="430"/>
                        </Array>
                    </mxGeometry>
                </mxCell>
                <mxCell id="13" value="ProductModal" style="swimlane;whiteSpace=wrap;html=1;" vertex="1" parent="1">
                    <mxGeometry x="150" y="480" width="90" height="50" as="geometry"/>
                </mxCell>
                <mxCell id="14" value="" style="endArrow=none;html=1;fontSize=14;rounded=1;strokeWidth=4;fillColor=#a20025;strokeColor=#FF0000;" edge="1" parent="1">
                    <mxGeometry width="50" height="50" relative="1" as="geometry">
                        <mxPoint x="635" y="270" as="sourcePoint"/>
                        <mxPoint x="705" y="270" as="targetPoint"/>
                    </mxGeometry>
                </mxCell>
                <mxCell id="15" value="props" style="text;html=1;align=center;verticalAlign=middle;resizable=0;points=[];autosize=1;strokeColor=none;fillColor=none;fontSize=14;fontColor=#FF0000;" vertex="1" parent="1">
                    <mxGeometry x="640" y="240" width="60" height="30" as="geometry"/>
                </mxCell>
                <mxCell id="16" value="" style="endArrow=none;html=1;fontSize=14;rounded=1;strokeWidth=4;fillColor=#a20025;strokeColor=#00FF00;" edge="1" parent="1">
                    <mxGeometry width="50" height="50" relative="1" as="geometry">
                        <mxPoint x="635" y="309" as="sourcePoint"/>
                        <mxPoint x="705" y="309" as="targetPoint"/>
                    </mxGeometry>
                </mxCell>
                <mxCell id="17" value="&lt;font color=&quot;#00ff00&quot;&gt;emit&lt;/font&gt;" style="text;html=1;align=center;verticalAlign=middle;resizable=0;points=[];autosize=1;strokeColor=none;fillColor=none;fontSize=14;fontColor=#FF0000;" vertex="1" parent="1">
                    <mxGeometry x="645" y="279" width="50" height="30" as="geometry"/>
                </mxCell>
                <mxCell id="18" value="" style="endArrow=none;html=1;fontSize=14;rounded=1;strokeWidth=4;fillColor=#a20025;strokeColor=#0000FF;" edge="1" parent="1">
                    <mxGeometry width="50" height="50" relative="1" as="geometry">
                        <mxPoint x="635" y="349.5" as="sourcePoint"/>
                        <mxPoint x="705" y="349.5" as="targetPoint"/>
                    </mxGeometry>
                </mxCell>
                <mxCell id="19" value="&lt;font color=&quot;#0000ff&quot;&gt;provide&lt;/font&gt;" style="text;html=1;align=center;verticalAlign=middle;resizable=0;points=[];autosize=1;strokeColor=none;fillColor=none;fontSize=14;fontColor=#FF0000;" vertex="1" parent="1">
                    <mxGeometry x="635" y="319.5" width="70" height="30" as="geometry"/>
                </mxCell>
                <mxCell id="20" value="" style="endArrow=none;html=1;fontSize=14;rounded=1;strokeWidth=4;fillColor=#a20025;strokeColor=#FF0080;" edge="1" parent="1">
                    <mxGeometry width="50" height="50" relative="1" as="geometry">
                        <mxPoint x="640" y="400" as="sourcePoint"/>
                        <mxPoint x="710" y="400" as="targetPoint"/>
                    </mxGeometry>
                </mxCell>
                <mxCell id="21" value="&lt;font color=&quot;#ff0080&quot;&gt;injectted method return&lt;/font&gt;" style="text;html=1;align=center;verticalAlign=middle;resizable=0;points=[];autosize=1;strokeColor=none;fillColor=none;fontSize=14;fontColor=#FF0000;" vertex="1" parent="1">
                    <mxGeometry x="590" y="370" width="170" height="30" as="geometry"/>
                </mxCell>
                <mxCell id="23" value="&lt;font color=&quot;#ff0000&quot; size=&quot;1&quot;&gt;OrderItemType&lt;/font&gt;" style="rounded=1;whiteSpace=wrap;html=1;fontSize=24;arcSize=27;strokeColor=#FF0000;" vertex="1" parent="1">
                    <mxGeometry x="160" y="170" width="70" height="20" as="geometry"/>
                </mxCell>
                <mxCell id="25" value="&lt;font size=&quot;1&quot; color=&quot;#ff0000&quot;&gt;Address&lt;/font&gt;" style="rounded=1;whiteSpace=wrap;html=1;fontSize=24;arcSize=27;strokeColor=#FF0000;" vertex="1" parent="1">
                    <mxGeometry x="100" y="289" width="70" height="20" as="geometry"/>
                </mxCell>
                <mxCell id="27" value="&lt;font size=&quot;1&quot; color=&quot;#ff0000&quot;&gt;ProductLine&lt;/font&gt;" style="rounded=1;whiteSpace=wrap;html=1;fontSize=24;arcSize=27;strokeColor=#FF0000;" vertex="1" parent="1">
                    <mxGeometry x="220" y="289" width="70" height="20" as="geometry"/>
                </mxCell>
                <mxCell id="29" value="&lt;font size=&quot;1&quot; color=&quot;#ff0000&quot;&gt;ProductProp&lt;/font&gt;" style="rounded=1;whiteSpace=wrap;html=1;fontSize=24;arcSize=27;strokeColor=#FF0000;" vertex="1" parent="1">
                    <mxGeometry x="170" y="420" width="70" height="20" as="geometry"/>
                </mxCell>
                <mxCell id="37" value="&lt;font size=&quot;1&quot; color=&quot;#ff0000&quot;&gt;Product&lt;/font&gt;" style="rounded=1;whiteSpace=wrap;html=1;fontSize=24;arcSize=27;strokeColor=#FF0000;" vertex="1" parent="1">
                    <mxGeometry x="330" y="410" width="46" height="20" as="geometry"/>
                </mxCell>
                <mxCell id="39" value="" style="edgeStyle=none;rounded=1;html=1;exitX=1;exitY=0.5;exitDx=0;exitDy=0;entryX=0;entryY=0.5;entryDx=0;entryDy=0;strokeColor=#FF0000;strokeWidth=4;fontSize=14;fontColor=#FF0000;endArrow=none;" edge="1" parent="1" source="13" target="32">
                    <mxGeometry relative="1" as="geometry">
                        <mxPoint x="240" y="505" as="sourcePoint"/>
                        <mxPoint x="340" y="505" as="targetPoint"/>
                    </mxGeometry>
                </mxCell>
                <mxCell id="32" value="&lt;font size=&quot;1&quot; color=&quot;#ff0000&quot;&gt;Product&lt;/font&gt;" style="rounded=1;whiteSpace=wrap;html=1;fontSize=24;arcSize=27;strokeColor=#FF0000;" vertex="1" parent="1">
                    <mxGeometry x="260" y="495" width="46" height="20" as="geometry"/>
                </mxCell>
                <mxCell id="41" value="&lt;font size=&quot;1&quot; color=&quot;#ff0000&quot;&gt;orderRef&lt;/font&gt;" style="rounded=1;whiteSpace=wrap;html=1;fontSize=24;arcSize=27;strokeColor=#FF0000;" vertex="1" parent="1">
                    <mxGeometry x="306" y="250" width="46" height="20" as="geometry"/>
                </mxCell>
                <mxCell id="50" value="" style="edgeStyle=none;rounded=1;html=1;exitX=0;exitY=0;exitDx=0;exitDy=0;entryX=0;entryY=0.5;entryDx=0;entryDy=0;strokeColor=#00FF00;strokeWidth=4;fontSize=10;fontColor=#FF0000;endArrow=none;" edge="1" parent="1" source="13" target="49">
                    <mxGeometry relative="1" as="geometry">
                        <mxPoint x="150" y="480" as="sourcePoint"/>
                        <mxPoint x="240" y="354.75" as="targetPoint"/>
                        <Array as="points"/>
                    </mxGeometry>
                </mxCell>
                <mxCell id="49" value="&lt;font color=&quot;#00ff00&quot; size=&quot;1&quot;&gt;close&lt;/font&gt;" style="rounded=1;whiteSpace=wrap;html=1;fontSize=24;arcSize=27;strokeColor=#00FF00;" vertex="1" parent="1">
                    <mxGeometry x="90" y="420" width="46" height="20" as="geometry"/>
                </mxCell>
                <mxCell id="52" value="&lt;font color=&quot;#0000ff&quot; size=&quot;1&quot;&gt;updateQuantity&lt;/font&gt;" style="rounded=1;whiteSpace=wrap;html=1;fontSize=24;arcSize=27;strokeColor=#0000FF;" vertex="1" parent="1">
                    <mxGeometry x="400" y="210" width="80" height="20" as="geometry"/>
                </mxCell>
                <mxCell id="54" value="&lt;font color=&quot;#0000ff&quot; size=&quot;1&quot;&gt;PRODUCT_LIST&lt;/font&gt;" style="rounded=1;whiteSpace=wrap;html=1;fontSize=24;arcSize=27;strokeColor=#0000FF;" vertex="1" parent="1">
                    <mxGeometry x="20" y="490" width="90" height="20" as="geometry"/>
                </mxCell>
                <mxCell id="56" value="&lt;font color=&quot;#ff0080&quot; size=&quot;1&quot;&gt;updateQuantity&lt;/font&gt;" style="rounded=1;whiteSpace=wrap;html=1;fontSize=24;arcSize=27;strokeColor=#FF0080;" vertex="1" parent="1">
                    <mxGeometry x="380" y="110" width="80" height="20" as="geometry"/>
                </mxCell>
            </root>
        </mxGraphModel>
    </diagram>
</mxfile>